<svg xmlns="http://www.w3.org/2000/svg" width="1200" height="700" viewBox="0 0 1200 700" fill="none">
  <defs>
    <linearGradient id="g1" x1="0" y1="0" x2="0" y2="1">
      <stop offset="0%" stop-color="#D9B86C" stop-opacity="0.52"/>
      <stop offset="100%" stop-color="#12335D" stop-opacity="0.16"/>
    </linearGradient>
  </defs>
  <rect width="1200" height="700" fill="none"/>
  <g opacity="0.75">
    <rect x="40" y="250" width="220" height="360" rx="14" fill="url(#g1)"/>
    <rect x="290" y="170" width="180" height="440" rx="14" fill="url(#g1)"/>
    <rect x="500" y="220" width="240" height="390" rx="14" fill="url(#g1)"/>
    <rect x="770" y="130" width="210" height="480" rx="14" fill="url(#g1)"/>
    <rect x="1010" y="260" width="140" height="350" rx="14" fill="url(#g1)"/>
  </g>
  <g fill="#FFF3D6" opacity="0.82">
    <rect x="80" y="290" width="28" height="28" rx="5"/>
    <rect x="130" y="290" width="28" height="28" rx="5"/>
    <rect x="180" y="290" width="28" height="28" rx="5"/>
    <rect x="330" y="220" width="24" height="24" rx="5"/>
    <rect x="370" y="220" width="24" height="24" rx="5"/>
    <rect x="560" y="260" width="26" height="26" rx="5"/>
    <rect x="606" y="260" width="26" height="26" rx="5"/>
    <rect x="810" y="176" width="24" height="24" rx="5"/>
    <rect x="852" y="176" width="24" height="24" rx="5"/>
    <rect x="1045" y="300" width="20" height="20" rx="4"/>
    <rect x="1080" y="300" width="20" height="20" rx="4"/>
  </g>
</svg>
